<svg width="20" height="20" viewBox="0 0 20 20" fill="none" xmlns="http://www.w3.org/2000/svg">
<path d="M5 19C6.06087 19 7.07828 18.5786 7.82843 17.8284C8.57857 17.0783 9 16.0609 9 15V3C9 2.46957 8.78929 1.96086 8.41421 1.58579C8.03914 1.21071 7.53043 1 7 1H3C2.46957 1 1.96086 1.21071 1.58579 1.58579C1.21071 1.96086 1 2.46957 1 3V15C1 16.0609 1.42143 17.0783 2.17157 17.8284C2.92172 18.5786 3.93913 19 5 19ZM5 19H17C17.5304 19 18.0391 18.7893 18.4142 18.4142C18.7893 18.0391 19 17.5304 19 17V13C19 12.4696 18.7893 11.9609 18.4142 11.5858C18.0391 11.2107 17.5304 11 17 11H14.7M5 15H5.01M9 6L11.3 3.7C11.5233 3.47592 11.7887 3.29819 12.0809 3.17705C12.3732 3.0559 12.6865 2.99373 13.0028 2.9941C13.3192 2.99447 13.6323 3.05738 13.9243 3.17921C14.2162 3.30104 14.4812 3.47939 14.704 3.704L16.6 5.6C16.8306 5.82181 17.0145 6.08749 17.1409 6.38141C17.2674 6.67534 17.3337 6.99157 17.3362 7.31152C17.3386 7.63147 17.277 7.94868 17.155 8.24449C17.0331 8.54029 16.8532 8.80873 16.626 9.034L7.9 17.8" stroke="#9C803D" stroke-width="2" stroke-linecap="round" stroke-linejoin="round"/>
</svg>
